<?xml version="1.0" encoding="iso-8859-1"?>
<!-- Uploaded to: SVG Repo, www.svgrepo.com, Generator: SVG Repo Mixer Tools -->
<!DOCTYPE svg PUBLIC "-//W3C//DTD SVG 1.1//EN" "http://www.w3.org/Graphics/SVG/1.1/DTD/svg11.dtd">
<svg fill="#000000" version="1.1" id="Capa_1" xmlns="http://www.w3.org/2000/svg" xmlns:xlink="http://www.w3.org/1999/xlink" 
	 width="800px" height="800px" viewBox="0 0 135.005 135.004"
	 xml:space="preserve">
<g>
	<path d="M129.22,116.707c3.691-5.579,5.785-12.045,5.785-18.8c0-3.808-0.67-7.6-1.903-10.964
		c-5.284-21.727-43.179-46.999-58.124-56.238l-5.751-8.116c1.189-0.472,2.128-1.416,2.603-2.592l9.218,6.518V10.006l-9.218,6.528
		c-0.475-1.184-1.413-2.139-2.597-2.603l6.525-9.213H59.244l6.528,9.213c-1.189,0.47-2.127,1.413-2.6,2.592l-9.215-6.518v16.508
		l9.215-6.523c0.472,1.176,1.411,2.133,2.6,2.597l-5.713,8.056C45.193,39.83,7.214,65.111,1.982,86.622
		C0.669,90.25,0,94.046,0,97.901c0,6.761,2.096,13.227,5.787,18.806c-0.954,1.529-1.635,3.248-1.861,5.115H3.773v8.464h127.457
		v-8.464h-0.153C130.845,119.95,130.169,118.236,129.22,116.707z M27.593,104.667c-2.66,1.81-4.793,4.341-6.091,7.33
		c-1.587-0.732-3.343-1.165-5.205-1.165c-2.199,0-4.229,0.591-6.017,1.593c-2.684-4.388-4.185-9.345-4.185-14.518
		c0-3.154,0.546-6.249,1.711-9.529c4.089-16.748,31.849-37.138,48.542-48.099c-10.17,11.377-25.558,31.024-28.042,48.13
		c-0.735,3.386-1.107,6.94-1.107,10.558C27.2,100.907,27.377,102.795,27.593,104.667z M48.199,105.791
		c-2.975-2.531-6.824-4.066-11.043-4.066c-1.289,0-2.531,0.195-3.741,0.459c-0.077-1.055-0.129-2.13-0.129-3.217
		c0-3.185,0.33-6.296,1.01-9.466c2.565-17.64,21.012-39.237,30.164-49.027v53.136C57.206,94.653,51.155,99.357,48.199,105.791z
		 M67.505,121.8c-5.049,0-9.131-4.092-9.131-9.128c0-5.047,4.087-9.134,9.131-9.134c5.047,0,9.129,4.098,9.129,9.134
		S72.562,121.8,67.505,121.8z M101.587,102.183c-1.213-0.264-2.446-0.459-3.733-0.459c-4.219,0-8.068,1.535-11.042,4.066
		c-2.964-6.434-9.008-11.138-16.264-12.182V40.5c9.176,9.807,27.602,31.414,30.195,49.207c0.644,3.006,0.981,6.128,0.981,9.265
		C101.725,100.053,101.666,101.118,101.587,102.183z M124.728,112.424c-1.783-1.002-3.808-1.593-6.012-1.593
		c-1.856,0-3.618,0.433-5.2,1.16c-1.297-2.984-3.438-5.516-6.096-7.325c0.222-1.871,0.396-3.76,0.396-5.7
		c0-3.57-0.364-7.119-1.07-10.347c-2.516-17.238-17.888-36.898-28.076-48.305c16.717,10.985,44.486,31.42,48.621,48.373
		c1.086,3.012,1.635,6.112,1.635,9.219C128.914,103.08,127.406,108.047,124.728,112.424z"/>
</g>
</svg>