<?xml version="1.0" encoding="iso-8859-1"?>
<!-- Uploaded to: SVG Repo, www.svgrepo.com, Generator: SVG Repo Mixer Tools -->
<svg fill="#000000" version="1.1" id="Layer_1" xmlns="http://www.w3.org/2000/svg" xmlns:xlink="http://www.w3.org/1999/xlink" 
	 viewBox="0 0 512 512" xml:space="preserve">
<g>
	<g>
		<rect x="406.988" y="129.829" width="15.673" height="15.674"/>
	</g>
</g>
<g>
	<g>
		<rect x="91.429" y="129.829" width="15.673" height="15.674"/>
	</g>
</g>
<g>
	<g>
		<path d="M0,31.086V189.91h91.429v291.004h331.233V189.91H512V31.086H0z M190.694,46.759h141.061v10.449H190.694V46.759z
			 M331.309,72.882c-3.912,35.215-33.844,62.694-70.084,62.694c-18.834,0-36.545-7.337-49.87-20.661
			c-11.457-11.457-18.473-26.162-20.218-42.033H331.309z M406.988,465.241H107.102v-16.196h299.886V465.241z M496.327,174.237
			h-73.665v-13.061h-15.673v272.196H107.102V161.176H91.429v13.061H15.673V46.759H175.02v18.286
			c0,23.021,8.967,44.668,25.252,60.953c16.284,16.284,37.931,25.251,60.952,25.251c47.533,0,86.204-38.672,86.204-86.204V46.759
			h148.898V174.237z"/>
	</g>
</g>
</svg>