<!DOCTYPE svg PUBLIC "-//W3C//DTD SVG 1.1//EN" "http://www.w3.org/Graphics/SVG/1.1/DTD/svg11.dtd">
<!-- Uploaded to: SVG Repo, www.svgrepo.com, Transformed by: SVG Repo Mixer Tools -->
<svg fill="#ffffff" height="800px" width="800px" version="1.1" id="Layer_1" xmlns="http://www.w3.org/2000/svg" xmlns:xlink="http://www.w3.org/1999/xlink" viewBox="0 0 512.086 512.086" xml:space="preserve" stroke="#ffffff">
<g id="SVGRepo_bgCarrier" stroke-width="0"/>
<g id="SVGRepo_tracerCarrier" stroke-linecap="round" stroke-linejoin="round"/>
<g id="SVGRepo_iconCarrier"> <g> <g> <path d="M464.569,386.338c-7.844-46.916-24.892-100.7-45.596-143.872c-29.168-60.828-64.588-101.616-105.276-121.228 c-2-0.964-4.384-0.124-5.34,1.864c-0.96,1.992-0.124,4.384,1.864,5.34c88.708,42.768,134.592,188.26,146.46,259.216 c5.352,31.988-2.74,63.516-22.196,86.496c-16.108,19.024-38.016,29.936-60.1,29.936H137.729c-22.124,0-44.068-10.94-60.196-30.016 c-19.432-22.984-27.492-54.484-22.108-86.416c12.8-75.984,57.92-216.044,145.824-259.024c1.984-0.968,2.804-3.368,1.836-5.352 c-0.972-1.98-3.364-2.808-5.352-1.836c-40.648,19.876-75.784,60.124-104.44,119.632c-29.544,61.356-41.84,122.016-45.756,145.248 c-5.772,34.26,2.936,68.128,23.892,92.912c17.652,20.876,41.82,32.848,66.304,32.848h236.656c24.444,0,48.572-11.944,66.2-32.764 C461.565,454.546,470.309,420.654,464.569,386.338z"/> </g> </g> <g> <g> <path d="M304.057,96.086h-96.024c-8.816,0-15.988,7.172-15.988,15.988v4.024c0,8.816,7.172,15.988,15.988,15.988h96.024 c8.816,0,15.988-7.172,15.988-15.988v-4.024C320.045,103.258,312.873,96.086,304.057,96.086z M312.045,116.098 c0,4.404-3.584,7.988-7.988,7.988h-96.024c-4.404,0-7.988-3.584-7.988-7.988v-4.024c0-4.404,3.584-7.988,7.988-7.988h96.024 c4.404,0,7.988,3.584,7.988,7.988V116.098z"/> </g> </g> <g> <g> <path d="M328.681,3.378c-3.096-3.172-8.012-4.164-13.692-2.652c-0.332,0.104-33.344,10.636-44.34,13.8 c-7.792,2.24-20.94,2.248-28.736,0.02c-11.112-3.16-44.46-13.748-45-13.912c-5.476-1.42-10.408-0.432-13.496,2.74 c-3.096,3.172-3.968,8.116-2.416,13.504l22.76,84.42c0.58,2.132,2.772,3.392,4.908,2.82c2.132-0.58,3.396-2.776,2.82-4.908 l-22.78-84.488c-0.744-2.568-0.58-4.724,0.432-5.764c1.016-1.044,3.176-1.256,5.552-0.64c1.376,0.436,33.8,10.724,45.028,13.92 c9.132,2.6,23.992,2.596,33.132-0.028c11.116-3.196,43.204-13.432,44.368-13.812c2.588-0.676,4.724-0.464,5.74,0.568 c1.008,1.036,1.172,3.188,0.412,5.824l-22.76,84.42c-0.576,2.136,0.688,4.328,2.82,4.908c0.352,0.092,0.7,0.136,1.048,0.136 c1.764,0,3.38-1.176,3.856-2.952l22.744-84.356C332.649,11.486,331.777,6.546,328.681,3.378z"/> </g> </g> <g> <g> <path d="M388.045,476.086h-264c-2.212,0-4,1.788-4,4c0,2.212,1.788,4,4,4h264c2.212,0,4-1.788,4-4 C392.045,477.874,390.257,476.086,388.045,476.086z"/> </g> </g> <g> <g> <g> <path d="M288.045,296.738v-80.652h35.784c6.612,0,11.992-5.384,11.992-12c0-6.616-5.38-12-11.992-12h-35.784v-0.092 c0-6.612-5.384-11.996-12-11.996c-6.616,0-12,5.384-12,11.996l-12,0.092v-0.092c0-6.612-5.384-11.996-12-11.996 c-6.616,0-12,5.384-12,11.996v0.492c-32.14,3.956-55.932,30.628-55.932,63.488c0,32.856,23.792,59.52,55.932,63.476v80.636h-36.1 c-6.612,0-11.992,5.384-11.992,12c0,6.616,5.38,12,11.992,12h36.1c0.016,6.6,5.392,11.968,12,11.968 c6.608,0,11.984-5.368,12-11.968h12c0.016,6.6,5.392,11.968,12,11.968c6.616,0,12-5.384,12-11.996v-0.62 c27.352-4.296,55.272-29.768,55.272-63.348C343.317,326.51,315.397,301.038,288.045,296.738z M283.697,415.914 c-2.068,0.18-3.652,1.908-3.652,3.984v4.16c0,2.204-1.792,3.996-4,3.996s-4-1.792-4-3.996v-3.972c0-2.212-1.788-4-4-4h-20 c-2.212,0-4,1.788-4,4v3.972c0,2.204-1.792,3.996-4,3.996s-4-1.792-4-3.996v-3.972c0-2.212-1.788-4-4-4h-40.1 c-2.204,0-3.992-1.792-3.992-4s1.788-4,3.992-4h40.1c2.212,0,4-1.788,4-4v-88.272c0-2.108-1.632-3.852-3.736-3.992 c-29.76-1.988-52.2-26-52.2-55.848c0-29.856,22.444-53.872,52.2-55.86c2.104-0.14,3.736-1.888,3.736-3.992v-4.128 c0-2.204,1.792-3.996,4-3.996s4,1.792,4,3.996v4.092c0,2.212,1.788,4,4,4h20c2.212,0,4-1.788,4-4v-4.092 c0-2.204,1.792-3.996,4-3.996s4,1.792,4,3.996v4.092c0,2.212,1.788,4,4,4h39.784c2.204,0,3.992,1.792,3.992,4s-1.788,4-3.992,4 h-39.784c-2.212,0-4,1.788-4,4v88.192c0,2.072,1.584,3.804,3.652,3.984c24.928,2.184,51.62,25.14,51.62,55.828 C335.317,390.782,308.625,413.734,283.697,415.914z"/> <path d="M268.045,208.086h-20c-2.212,0-4,1.788-4,4v88c0,2.212,1.788,4,4,4h20c2.212,0,4-1.788,4-4v-88 C272.045,209.874,270.257,208.086,268.045,208.086z M264.045,296.086h-12v-80h12V296.086z"/> <path d="M231.697,208.126c-25.26,2.2-43.596,22.324-43.596,47.848c0,25.52,18.336,45.636,43.596,47.836 c0.116,0.012,0.236,0.016,0.348,0.016c0.996,0,1.96-0.372,2.704-1.052c0.828-0.756,1.296-1.828,1.296-2.948V212.11 c0-1.12-0.468-2.188-1.296-2.948S232.837,207.994,231.697,208.126z M228.045,295.242c-19.02-3.56-31.944-19.16-31.944-39.272 c0-20.12,12.924-35.716,31.944-39.284V295.242z"/> <path d="M284.521,312.326c-1.144-0.136-2.272,0.224-3.132,0.98c-0.856,0.756-1.344,1.848-1.344,2.992v87.592 c0,1.144,0.488,2.236,1.344,2.992c0.74,0.652,1.684,1.008,2.656,1.008c0.16,0,0.316-0.008,0.476-0.028 c20.588-2.468,42.812-21.436,42.812-47.772C327.333,333.746,305.109,314.786,284.521,312.326z M288.045,399.07v-77.952 c15.844,4.088,31.288,19.54,31.288,38.972C319.333,379.518,303.889,394.974,288.045,399.07z"/> <path d="M268.045,312.086h-20c-2.212,0-4,1.788-4,4v88c0,2.212,1.788,4,4,4h20c2.212,0,4-1.788,4-4v-88 C272.045,313.874,270.257,312.086,268.045,312.086z M264.045,400.086h-12v-80h12V400.086z"/> </g> </g> </g> </g>
</svg>